<svg width="37" height="36" viewBox="0 0 37 36" fill="none" xmlns="http://www.w3.org/2000/svg">
<g id="Cart">
<g id="Group 49">
<path id="Vector" d="M5.25 6.83325L1 12.4999V32.3333C1 33.0847 1.29851 33.8054 1.82986 34.3367C2.36122 34.8681 3.08189 35.1666 3.83333 35.1666H23.6667C24.4181 35.1666 25.1388 34.8681 25.6701 34.3367C26.2015 33.8054 26.5 33.0847 26.5 32.3333V12.4999L22.25 6.83325H5.25Z" stroke="#34251F" stroke-linecap="round" stroke-linejoin="round"/>
<path id="Vector_2" d="M1 12.5H26.5" stroke="#34251F" stroke-linecap="round" stroke-linejoin="round"/>
<path id="Vector_3" d="M19.4166 18.1667C19.4166 19.6696 18.8196 21.111 17.7569 22.1737C16.6942 23.2364 15.2529 23.8334 13.75 23.8334C12.2471 23.8334 10.8057 23.2364 9.74304 22.1737C8.68033 21.111 8.08331 19.6696 8.08331 18.1667" stroke="#34251F" stroke-linecap="round" stroke-linejoin="round"/>
</g>
<circle id="Ellipse 18" cx="28.75" cy="8" r="8" fill="#C20A0A"/>
<path id="1" d="M27.2553 10.0782H28.4342V7.0535C28.4342 6.90535 28.4384 6.75034 28.4468 6.58848L27.7521 7.15226C27.7072 7.18793 27.6623 7.21399 27.6174 7.23045C27.5725 7.24417 27.5289 7.25103 27.4868 7.25103C27.4139 7.25103 27.3479 7.23594 27.2889 7.20576C27.2328 7.17284 27.1907 7.13855 27.1626 7.10288L26.75 6.5679L28.6616 5H29.7395V10.0782H30.75V11H27.2553V10.0782Z" fill="white"/>
</g>
</svg>
